<svg width="20" height="20" viewBox="0 0 20 20" fill="none" xmlns="http://www.w3.org/2000/svg">
<path fill-rule="evenodd" clip-rule="evenodd" d="M3 3.5C3 3.22386 3.22386 3 3.5 3H5H15H16.5C16.7761 3 17 3.22386 17 3.5C17 3.77614 16.7761 4 16.5 4H16V12C16 12.5523 15.5523 13 15 13H5C4.44772 13 4 12.5523 4 12V4L3.5 4C3.22386 4 3 3.77614 3 3.5ZM5 14.4C5 14.1791 5.17909 14 5.4 14H14.6C14.8209 14 15 14.1791 15 14.4V16C15 16.5523 14.5523 17 14 17H6C5.44772 17 5 16.5523 5 16V14.4ZM5 11C5 10.7239 5.22386 10.5 5.5 10.5H14.5C14.7761 10.5 15 10.7239 15 11C15 11.2761 14.7761 11.5 14.5 11.5H5.5C5.22386 11.5 5 11.2761 5 11ZM5.5 7.5C5.22386 7.5 5 7.72386 5 8C5 8.27614 5.22386 8.5 5.5 8.5H14.5C14.7761 8.5 15 8.27614 15 8C15 7.72386 14.7761 7.5 14.5 7.5H5.5ZM5 5C5 4.72386 5.22386 4.5 5.5 4.5H14.5C14.7761 4.5 15 4.72386 15 5C15 5.27614 14.7761 5.5 14.5 5.5H5.5C5.22386 5.5 5 5.27614 5 5Z" fill="#F9F9F7"/>
</svg>
