<svg width="14" height="18" viewBox="0 0 14 18" fill="none" xmlns="http://www.w3.org/2000/svg">
<path fill-rule="evenodd" clip-rule="evenodd" d="M7 0.81781C3.53838 0.81781 0.721191 3.59498 0.721191 7.03428C0.721191 9.58487 1.80288 11.7889 3.03735 13.4798C4.27321 15.1726 5.69153 16.3917 6.43585 16.9843C6.76737 17.2482 7.23252 17.2482 7.56403 16.9843C8.30836 16.3917 9.72671 15.1726 10.9626 13.4798C12.1971 11.7889 13.2788 9.58487 13.2788 7.03428C13.2788 3.59498 10.4616 0.81781 7 0.81781ZM7 3.3442C4.93487 3.3442 3.25 5.01718 3.25 7.0942C3.25 9.17123 4.93487 10.8442 7 10.8442C9.06514 10.8442 10.75 9.17123 10.75 7.0942C10.75 5.01718 9.06514 3.3442 7 3.3442Z" fill="#63605A"/>
</svg>
