<svg width="20" height="20" viewBox="0 0 20 20" fill="none" xmlns="http://www.w3.org/2000/svg">
<path d="M16.7819 13.918V16.0723C16.7827 16.2723 16.7417 16.4703 16.6616 16.6535C16.5815 16.8368 16.464 17.0013 16.3166 17.1365C16.1692 17.2717 15.9952 17.3746 15.8058 17.4387C15.6163 17.5027 15.4156 17.5265 15.2164 17.5085C13.0067 17.2684 10.884 16.5133 9.0191 15.3039C7.28402 14.2014 5.81297 12.7303 4.71043 10.9953C3.49681 9.12186 2.74154 6.98891 2.50583 4.76923C2.48788 4.57065 2.51148 4.37051 2.57513 4.18155C2.63877 3.99259 2.74106 3.81895 2.87549 3.67169C3.00992 3.52443 3.17353 3.40677 3.35592 3.32621C3.53831 3.24564 3.73548 3.20394 3.93487 3.20375H6.08921C6.43771 3.20032 6.77557 3.32373 7.03981 3.55098C7.30406 3.77823 7.47665 4.09381 7.52543 4.4389C7.61636 5.12834 7.78499 5.80527 8.02811 6.4568C8.12472 6.71383 8.14564 6.99317 8.08836 7.26171C8.03109 7.53026 7.89803 7.77677 7.70496 7.97201L6.79296 8.88401C7.81523 10.6818 9.3038 12.1704 11.1016 13.1927L12.0136 12.2807C12.2089 12.0876 12.4554 11.9546 12.7239 11.8973C12.9925 11.84 13.2718 11.8609 13.5288 11.9575C14.1804 12.2006 14.8573 12.3693 15.5467 12.4602C15.8956 12.5094 16.2141 12.6851 16.4419 12.9539C16.6696 13.2227 16.7906 13.5658 16.7819 13.918Z" fill="#63605A"/>
<path d="M11.791 5.3581C12.4924 5.49495 13.137 5.83799 13.6424 6.34331C14.1477 6.84863 14.4907 7.49324 14.6276 8.19464M11.791 2.48566C13.2483 2.64755 14.6072 3.30012 15.6446 4.33624C16.682 5.37235 17.3363 6.73042 17.5 8.18746" stroke="#63605A" stroke-linecap="round" stroke-linejoin="round"/>
</svg>
