<svg width="25" height="24" viewBox="0 0 25 24" fill="none" xmlns="http://www.w3.org/2000/svg">
<path d="M14.4825 6.42969C15.3242 6.59391 16.0978 7.00555 16.7041 7.61194C17.3105 8.21832 17.7222 8.99186 17.8864 9.83354M14.4825 2.98276C16.2312 3.17702 17.8619 3.96011 19.1068 5.20345C20.3517 6.44679 21.1368 8.07648 21.3333 9.82492M20.4716 16.7016V19.2868C20.4726 19.5268 20.4234 19.7643 20.3272 19.9842C20.2311 20.2041 20.0901 20.4015 19.9132 20.5637C19.7364 20.726 19.5276 20.8495 19.3003 20.9264C19.0729 21.0033 18.832 21.0318 18.593 21.0102C15.9413 20.7221 13.3942 19.816 11.1562 18.3647C9.07414 17.0417 7.30888 15.2764 5.98583 13.1943C4.52948 10.9462 3.62317 8.38669 3.34031 5.72307C3.31877 5.48477 3.34709 5.2446 3.42347 5.01785C3.49984 4.7911 3.62259 4.58273 3.7839 4.40602C3.94521 4.2293 4.14155 4.08811 4.36042 3.99144C4.57929 3.89476 4.81589 3.84472 5.05516 3.84449H7.64036C8.05857 3.84038 8.464 3.98847 8.78109 4.26117C9.09818 4.53387 9.3053 4.91256 9.36383 5.32667C9.47294 6.154 9.6753 6.96632 9.96704 7.74815C10.083 8.05658 10.1081 8.39179 10.0393 8.71405C9.97062 9.03631 9.81095 9.33211 9.57926 9.56641L8.48486 10.6608C9.71159 12.8182 11.4979 14.6045 13.6553 15.8312L14.7497 14.7368C14.984 14.5051 15.2798 14.3455 15.602 14.2767C15.9243 14.208 16.2595 14.2331 16.5679 14.349C17.3498 14.6408 18.1621 14.8431 18.9894 14.9522C19.408 15.0113 19.7903 15.2221 20.0636 15.5447C20.3369 15.8672 20.4821 16.2789 20.4716 16.7016Z" stroke="#63605A" stroke-width="1.4" stroke-linecap="round" stroke-linejoin="round"/>
</svg>
