<svg width="25" height="24" viewBox="0 0 25 24" fill="none" xmlns="http://www.w3.org/2000/svg">
<path d="M15.6667 5V7M15.6667 11V13M15.6667 17V19M5.66669 5C4.56212 5 3.66669 5.89543 3.66669 7V10C4.77126 10 5.66669 10.8954 5.66669 12C5.66669 13.1046 4.77126 14 3.66669 14V17C3.66669 18.1046 4.56212 19 5.66669 19H19.6667C20.7713 19 21.6667 18.1046 21.6667 17V14C20.5621 14 19.6667 13.1046 19.6667 12C19.6667 10.8954 20.5621 10 21.6667 10V7C21.6667 5.89543 20.7713 5 19.6667 5H5.66669Z" stroke="#63605A" stroke-width="1.4" stroke-linecap="round" stroke-linejoin="round"/>
</svg>
